<svg width="242" height="31" viewBox="0 0 242 31" fill="none" xmlns="http://www.w3.org/2000/svg">
<g clip-path="url(#clip0_2441_101)">
<path fill-rule="evenodd" clip-rule="evenodd" d="M18.152 12.7455C18.6793 11.6019 18.9735 10.3287 18.9735 8.98672C18.9735 4.02349 14.95 0 9.98673 0C5.02349 0 1 4.02349 1 8.98672C1 10.3287 1.29413 11.6019 1.82143 12.7455C3.73118 10.6742 6.67905 9.34619 9.98673 9.34619C13.2944 9.34619 16.2423 10.6742 18.152 12.7455Z" fill="#9E30FF"/>
<path fill-rule="evenodd" clip-rule="evenodd" d="M13.7455 29.0145C12.6019 29.5418 11.3287 29.8359 9.98672 29.8359C5.02349 29.8359 0.999999 25.8124 1 20.8492C1 15.886 5.02349 11.8625 9.98672 11.8625C11.3287 11.8625 12.6019 12.1566 13.7455 12.6839C11.6742 14.5936 10.3462 17.5415 10.3462 20.8492C10.3462 24.1569 11.6742 27.1047 13.7455 29.0145Z" fill="#9E30FF"/>
<path fill-rule="evenodd" clip-rule="evenodd" d="M30.0144 17.2545C30.5417 18.3981 30.8359 19.6713 30.8359 21.0133C30.8359 25.9765 26.8124 30 21.8492 30C16.8859 30 12.8624 25.9765 12.8624 21.0133C12.8624 19.6713 13.1566 18.3981 13.6839 17.2545C15.5936 19.3258 18.5415 20.6538 21.8492 20.6538C25.1568 20.6538 28.1047 19.3258 30.0144 17.2545Z" fill="#9E30FF"/>
<path fill-rule="evenodd" clip-rule="evenodd" d="M18.2545 0.821449C19.3981 0.294142 20.6713 1.41009e-05 22.0133 1.40423e-05C26.9765 1.38253e-05 31 4.02351 31 8.98674C31 13.95 26.9765 17.9735 22.0133 17.9735C20.6713 17.9735 19.3981 17.6793 18.2545 17.152C20.3258 15.2423 21.6538 12.2944 21.6538 8.98674C21.6538 5.67906 20.3258 2.73119 18.2545 0.821449Z" fill="#9E30FF"/>
<path d="M52.299 26L47.525 17.568H45.479V26H41.139V4.362H49.261C50.935 4.362 52.361 4.66167 53.539 5.261C54.717 5.83967 55.5953 6.63533 56.174 7.648C56.7733 8.64 57.073 9.756 57.073 10.996C57.073 12.422 56.6597 13.7137 55.833 14.871C55.0063 16.0077 53.7767 16.793 52.144 17.227L57.321 26H52.299ZM45.479 14.313H49.106C50.284 14.313 51.1623 14.034 51.741 13.476C52.3197 12.8973 52.609 12.1017 52.609 11.089C52.609 10.097 52.3197 9.33233 51.741 8.795C51.1623 8.237 50.284 7.958 49.106 7.958H45.479V14.313ZM76.9634 17.041C76.9634 17.661 76.922 18.219 76.8394 18.715H64.2844C64.3877 19.955 64.8217 20.9263 65.5864 21.629C66.351 22.3317 67.2914 22.683 68.4074 22.683C70.0194 22.683 71.1664 21.9907 71.8484 20.606H76.5294C76.0334 22.2593 75.0827 23.6233 73.6774 24.698C72.272 25.752 70.5464 26.279 68.5004 26.279C66.847 26.279 65.359 25.9173 64.0364 25.194C62.7344 24.45 61.7114 23.4063 60.9674 22.063C60.244 20.7197 59.8824 19.1697 59.8824 17.413C59.8824 15.6357 60.244 14.0753 60.9674 12.732C61.6907 11.3887 62.7034 10.3553 64.0054 9.632C65.3074 8.90867 66.8057 8.547 68.5004 8.547C70.133 8.547 71.59 8.89833 72.8714 9.601C74.1734 10.3037 75.1757 11.306 75.8784 12.608C76.6017 13.8893 76.9634 15.367 76.9634 17.041ZM72.4684 15.801C72.4477 14.685 72.0447 13.7963 71.2594 13.135C70.474 12.453 69.513 12.112 68.3764 12.112C67.3017 12.112 66.3924 12.4427 65.6484 13.104C64.925 13.7447 64.4807 14.6437 64.3154 15.801H72.4684ZM79.0152 17.351C79.0152 15.615 79.3562 14.0753 80.0382 12.732C80.7409 11.3887 81.6812 10.3553 82.8592 9.632C84.0579 8.90867 85.3909 8.547 86.8582 8.547C88.1395 8.547 89.2555 8.80533 90.2062 9.322C91.1775 9.83867 91.9525 10.4897 92.5312 11.275V8.826H96.9022V26H92.5312V23.489C91.9732 24.295 91.1982 24.9667 90.2062 25.504C89.2349 26.0207 88.1085 26.279 86.8272 26.279C85.3805 26.279 84.0579 25.907 82.8592 25.163C81.6812 24.419 80.7409 23.3753 80.0382 22.032C79.3562 20.668 79.0152 19.1077 79.0152 17.351ZM92.5312 17.413C92.5312 16.359 92.3245 15.46 91.9112 14.716C91.4979 13.9513 90.9399 13.3727 90.2372 12.98C89.5345 12.5667 88.7802 12.36 87.9742 12.36C87.1682 12.36 86.4242 12.5563 85.7422 12.949C85.0602 13.3417 84.5022 13.9203 84.0682 14.685C83.6549 15.429 83.4482 16.3177 83.4482 17.351C83.4482 18.3843 83.6549 19.2937 84.0682 20.079C84.5022 20.8437 85.0602 21.4327 85.7422 21.846C86.4449 22.2593 87.1889 22.466 87.9742 22.466C88.7802 22.466 89.5345 22.2697 90.2372 21.877C90.9399 21.4637 91.4979 20.885 91.9112 20.141C92.3245 19.3763 92.5312 18.467 92.5312 17.413ZM100.025 17.413C100.025 15.6357 100.387 14.0857 101.11 12.763C101.833 11.4197 102.836 10.3863 104.117 9.663C105.398 8.919 106.866 8.547 108.519 8.547C110.648 8.547 112.404 9.08433 113.789 10.159C115.194 11.213 116.135 12.701 116.61 14.623H111.929C111.681 13.879 111.257 13.3003 110.658 12.887C110.079 12.453 109.356 12.236 108.488 12.236C107.248 12.236 106.266 12.6907 105.543 13.6C104.82 14.4887 104.458 15.7597 104.458 17.413C104.458 19.0457 104.82 20.3167 105.543 21.226C106.266 22.1147 107.248 22.559 108.488 22.559C110.245 22.559 111.392 21.7737 111.929 20.203H116.61C116.135 22.063 115.194 23.5407 113.789 24.636C112.384 25.7313 110.627 26.279 108.519 26.279C106.866 26.279 105.398 25.9173 104.117 25.194C102.836 24.45 101.833 23.4167 101.11 22.094C100.387 20.7507 100.025 19.1903 100.025 17.413ZM129.461 8.578C130.763 8.578 131.921 8.86733 132.933 9.446C133.946 10.004 134.731 10.841 135.289 11.957C135.868 13.0523 136.157 14.375 136.157 15.925V26H131.817V16.514C131.817 15.15 131.476 14.1063 130.794 13.383C130.112 12.639 129.182 12.267 128.004 12.267C126.806 12.267 125.855 12.639 125.152 13.383C124.47 14.1063 124.129 15.15 124.129 16.514V26H119.789V3.06H124.129V10.965C124.687 10.221 125.431 9.64233 126.361 9.229C127.291 8.795 128.325 8.578 129.461 8.578ZM155.142 26.217C153.634 26.217 152.27 25.9587 151.05 25.442C149.852 24.9253 148.901 24.1813 148.198 23.21C147.496 22.2387 147.134 21.0917 147.113 19.769H151.763C151.825 20.6577 152.135 21.3603 152.693 21.877C153.272 22.3937 154.057 22.652 155.049 22.652C156.062 22.652 156.858 22.4143 157.436 21.939C158.015 21.443 158.304 20.8023 158.304 20.017C158.304 19.3763 158.108 18.8493 157.715 18.436C157.323 18.0227 156.827 17.7023 156.227 17.475C155.649 17.227 154.843 16.9583 153.809 16.669C152.404 16.2557 151.257 15.8527 150.368 15.46C149.5 15.0467 148.746 14.437 148.105 13.631C147.485 12.8043 147.175 11.709 147.175 10.345C147.175 9.06367 147.496 7.94767 148.136 6.997C148.777 6.04633 149.676 5.323 150.833 4.827C151.991 4.31033 153.313 4.052 154.801 4.052C157.033 4.052 158.842 4.59967 160.226 5.695C161.632 6.76967 162.407 8.27833 162.551 10.221H157.777C157.736 9.477 157.416 8.86733 156.816 8.392C156.238 7.896 155.463 7.648 154.491 7.648C153.644 7.648 152.962 7.865 152.445 8.299C151.949 8.733 151.701 9.36333 151.701 10.19C151.701 10.7687 151.887 11.2543 152.259 11.647C152.652 12.019 153.127 12.329 153.685 12.577C154.264 12.8043 155.07 13.073 156.103 13.383C157.509 13.7963 158.656 14.2097 159.544 14.623C160.433 15.0363 161.198 15.6563 161.838 16.483C162.479 17.3097 162.799 18.3947 162.799 19.738C162.799 20.8953 162.5 21.97 161.9 22.962C161.301 23.954 160.423 24.7497 159.265 25.349C158.108 25.9277 156.734 26.217 155.142 26.217ZM174.188 26.279C172.535 26.279 171.047 25.9173 169.724 25.194C168.401 24.45 167.358 23.4063 166.593 22.063C165.849 20.7197 165.477 19.1697 165.477 17.413C165.477 15.6563 165.859 14.1063 166.624 12.763C167.409 11.4197 168.474 10.3863 169.817 9.663C171.16 8.919 172.659 8.547 174.312 8.547C175.965 8.547 177.464 8.919 178.807 9.663C180.15 10.3863 181.204 11.4197 181.969 12.763C182.754 14.1063 183.147 15.6563 183.147 17.413C183.147 19.1697 182.744 20.7197 181.938 22.063C181.153 23.4063 180.078 24.45 178.714 25.194C177.371 25.9173 175.862 26.279 174.188 26.279ZM174.188 22.497C174.973 22.497 175.707 22.311 176.389 21.939C177.092 21.5463 177.65 20.9677 178.063 20.203C178.476 19.4383 178.683 18.5083 178.683 17.413C178.683 15.7803 178.249 14.53 177.381 13.662C176.534 12.7733 175.49 12.329 174.25 12.329C173.01 12.329 171.966 12.7733 171.119 13.662C170.292 14.53 169.879 15.7803 169.879 17.413C169.879 19.0457 170.282 20.3063 171.088 21.195C171.915 22.063 172.948 22.497 174.188 22.497ZM185.214 17.413C185.214 15.6357 185.576 14.0857 186.299 12.763C187.023 11.4197 188.025 10.3863 189.306 9.663C190.588 8.919 192.055 8.547 193.708 8.547C195.837 8.547 197.594 9.08433 198.978 10.159C200.384 11.213 201.324 12.701 201.799 14.623H197.118C196.87 13.879 196.447 13.3003 195.847 12.887C195.269 12.453 194.545 12.236 193.677 12.236C192.437 12.236 191.456 12.6907 190.732 13.6C190.009 14.4887 189.647 15.7597 189.647 17.413C189.647 19.0457 190.009 20.3167 190.732 21.226C191.456 22.1147 192.437 22.559 193.677 22.559C195.434 22.559 196.581 21.7737 197.118 20.203H201.799C201.324 22.063 200.384 23.5407 198.978 24.636C197.573 25.7313 195.816 26.279 193.708 26.279C192.055 26.279 190.588 25.9173 189.306 25.194C188.025 24.45 187.023 23.4167 186.299 22.094C185.576 20.7507 185.214 19.1903 185.214 17.413ZM207.18 6.78C206.415 6.78 205.775 6.54233 205.258 6.067C204.762 5.571 204.514 4.96133 204.514 4.238C204.514 3.51467 204.762 2.91533 205.258 2.44C205.775 1.944 206.415 1.696 207.18 1.696C207.945 1.696 208.575 1.944 209.071 2.44C209.588 2.91533 209.846 3.51467 209.846 4.238C209.846 4.96133 209.588 5.571 209.071 6.067C208.575 6.54233 207.945 6.78 207.18 6.78ZM209.319 8.826V26H204.979V8.826H209.319ZM212.491 17.351C212.491 15.615 212.832 14.0753 213.514 12.732C214.216 11.3887 215.157 10.3553 216.335 9.632C217.533 8.90867 218.866 8.547 220.334 8.547C221.615 8.547 222.731 8.80533 223.682 9.322C224.653 9.83867 225.428 10.4897 226.007 11.275V8.826H230.378V26H226.007V23.489C225.449 24.295 224.674 24.9667 223.682 25.504C222.71 26.0207 221.584 26.279 220.303 26.279C218.856 26.279 217.533 25.907 216.335 25.163C215.157 24.419 214.216 23.3753 213.514 22.032C212.832 20.668 212.491 19.1077 212.491 17.351ZM226.007 17.413C226.007 16.359 225.8 15.46 225.387 14.716C224.973 13.9513 224.415 13.3727 223.713 12.98C223.01 12.5667 222.256 12.36 221.45 12.36C220.644 12.36 219.9 12.5563 219.218 12.949C218.536 13.3417 217.978 13.9203 217.544 14.685C217.13 15.429 216.924 16.3177 216.924 17.351C216.924 18.3843 217.13 19.2937 217.544 20.079C217.978 20.8437 218.536 21.4327 219.218 21.846C219.92 22.2593 220.664 22.466 221.45 22.466C222.256 22.466 223.01 22.2697 223.713 21.877C224.415 21.4637 224.973 20.885 225.387 20.141C225.8 19.3763 226.007 18.467 226.007 17.413ZM238.957 3.06V26H234.617V3.06H238.957Z" fill="#222222"/>
</g>
<defs>
<clipPath id="clip0_2441_101">
<rect width="242" height="31" fill="white"/>
</clipPath>
</defs>
</svg>
